<svg id="visual" viewBox="0 0 900 600" width="900" height="600"
    xmlns="http://www.w3.org/2000/svg"
    xmlns:xlink="http://www.w3.org/1999/xlink" version="1.1">
    <g>
        <g transform="translate(359 195)">
            <path d="M0 -97.5L84.4 -48.7L84.4 48.7L0 97.5L-84.4 48.7L-84.4 -48.7Z" fill="#669BBC" fill-opacity="0.2"></path>
        </g>
        <g transform="translate(140 274)">
            <path d="M0 -77L66.7 -38.5L66.7 38.5L0 77L-66.7 38.5L-66.7 -38.5Z" fill="#669BBC" fill-opacity="0.2"></path>
        </g>
        <g transform="translate(751 282)">
            <path d="M0 -54L46.8 -27L46.8 27L0 54L-46.8 27L-46.8 -27Z" fill="#669BBC" fill-opacity="0.2"></path>
        </g>
        <g transform="translate(606 116)">
            <path d="M0 -52L45 -26L45 26L0 52L-45 26L-45 -26Z" fill="#669BBC" fill-opacity="0.2"></path>
        </g>
        <g transform="translate(605 430)">
            <path d="M0 -78L67.5 -39L67.5 39L0 78L-67.5 39L-67.5 -39Z" fill="#669BBC" fill-opacity="0.2"></path>
        </g>
        <g transform="translate(262 448)">
            <path d="M0 -50L43.3 -25L43.3 25L0 50L-43.3 25L-43.3 -25Z" fill="#669BBC" fill-opacity="0.2"></path>
        </g>
        <g transform="translate(795 502)">
            <path d="M0 -72L62.4 -36L62.4 36L0 72L-62.4 36L-62.4 -36Z" fill="#669BBC" fill-opacity="0.2"></path>
        </g>
    </g>
</svg>