<?xml version="1.0" encoding="utf-8"?>
<!-- Generator: Adobe Illustrator 16.0.0, SVG Export Plug-In . SVG Version: 6.00 Build 0)  -->
<!DOCTYPE svg PUBLIC "-//W3C//DTD SVG 1.1//EN" "http://www.w3.org/Graphics/SVG/1.1/DTD/svg11.dtd">
<svg version="1.1" id="Layer_1" xmlns="http://www.w3.org/2000/svg" xmlns:xlink="http://www.w3.org/1999/xlink" x="0px" y="0px"
	 width="221px" height="254px" viewBox="0 0 221 254" enable-background="new 0 0 221 254" xml:space="preserve">
<path fill-rule="evenodd" clip-rule="evenodd" fill="none" opacity="0.4" stroke="#669BBC" stroke-miterlimit="10" d="M145.18,13.014
	c0.013,0.012,0.024,0.021,0.037,0.033c-0.531-0.012-1.058-0.033-1.582-0.033H112.56H81.477c-36.939,0-67.243,29.796-68.123,66.557
	c0.012-0.008,0.023-0.017,0.035-0.026c-0.012,0.533-0.035,1.055-0.035,1.598v31.078v31.08c0,36.917,29.787,67.22,66.574,68.08
	c-0.141-0.009-0.277-0.035-0.417-0.045c0.65,0.023,1.304,0.045,1.967,0.045h4.103c45.563,0,48.928,53.595,97.588,22.45
	c0.949-0.56,1.401-1.636,1.154-2.702c-0.205-1.119-1.023-1.913-2.139-2.104c-34.771-5.902-50.096-59.325-90.271-59.325h-36.9V112.22
	V54.698h57.547h57.521v57.521v57.479h-29.86c-1.054,0-1.995,0.646-2.424,1.612c-3.691,8.949,32.563,36.872,46.32,26.634
	c3.319-2.471,6.395-5.252,9.217-8.272c0.334-0.322,0.672-0.66,1.017-1.043c2.845-3.185,5.388-6.641,7.603-10.312
	c0.013-0.021,0.024-0.043,0.037-0.064c0.588-0.974,1.146-1.966,1.686-2.971c0.124-0.231,0.246-0.464,0.367-0.696
	c0.428-0.82,0.838-1.65,1.232-2.491c0.139-0.292,0.279-0.581,0.414-0.876c0.411-0.908,0.803-1.827,1.174-2.757
	c0.146-0.363,0.287-0.728,0.428-1.094c0.324-0.854,0.638-1.712,0.928-2.582c0.189-0.562,0.36-1.132,0.534-1.7
	c0.16-0.521,0.317-1.043,0.465-1.569c0.182-0.647,0.353-1.298,0.515-1.951c0.107-0.436,0.207-0.876,0.307-1.315
	c0.164-0.721,0.326-1.442,0.467-2.174c0.041-0.211,0.072-0.428,0.111-0.641c0.313-1.721,0.561-3.464,0.741-5.229
	c0.019-0.185,0.044-0.368,0.062-0.555c0.077-0.82,0.129-1.647,0.176-2.476c0.021-0.36,0.041-0.72,0.057-1.079
	c0.018-0.428,0.057-0.849,0.066-1.276c-0.009,0.144-0.036,0.28-0.047,0.425c0.02-0.649,0.047-1.295,0.047-1.946v-31.08V81.142
	C211.719,44.185,181.939,13.855,145.18,13.014z"/>
</svg>
