<?xml version="1.0" encoding="utf-8"?>
<!-- Generator: Adobe Illustrator 16.0.0, SVG Export Plug-In . SVG Version: 6.00 Build 0)  -->
<!DOCTYPE svg PUBLIC "-//W3C//DTD SVG 1.1//EN" "http://www.w3.org/Graphics/SVG/1.1/DTD/svg11.dtd">
<svg version="1.1" id="Layer_1" xmlns="http://www.w3.org/2000/svg" xmlns:xlink="http://www.w3.org/1999/xlink" x="0px" y="0px"
	 width="336px" height="96px" viewBox="0 0 336 96" enable-background="new 0 0 336 96" xml:space="preserve">
<g>
	<g>
		<linearGradient id="SVGID_1_" gradientUnits="userSpaceOnUse" x1="58.2285" y1="11.084" x2="58.2285" y2="51.3586">
			<stop  offset="0" style="stop-color:#EAA22C"/>
			<stop  offset="0.2" style="stop-color:#FDB913"/>
			<stop  offset="0.73" style="stop-color:#FDB913"/>
			<stop  offset="1" style="stop-color:#F15A22"/>
		</linearGradient>
		<path fill-rule="evenodd" clip-rule="evenodd" fill="url(#SVGID_1_)" d="M67.917,25.215v9.053v9.05
			c-0.006,5.061-1.914,9.689-5.061,13.21c-1.828,2.029-3.059,0.945-5.581,2.094l-2.405,0.617c0.78-1.2,0.915-2.236,0.915-3.775
			V34.266V17.515l-2.296-4.657c-1.803-3.663-2.188-5.129-4.95-7.477C59.245,5.622,67.917,14.453,67.917,25.215z"/>
		<linearGradient id="SVGID_2_" gradientUnits="userSpaceOnUse" x1="20.0645" y1="61.7676" x2="39.8893" y2="61.7676">
			<stop  offset="0" style="stop-color:#4D2D5A"/>
			<stop  offset="0.47" style="stop-color:#ED1C24"/>
			<stop  offset="1" style="stop-color:#ED1C24"/>
		</linearGradient>
		<path fill-rule="evenodd" clip-rule="evenodd" fill="url(#SVGID_2_)" d="M33.026,51.01H17.903l2.085,7.515l6.848,4.286
			l1.798,0.292c0.433,0.028,0.889,0.05,1.353,0.05h1.188c13.271,0,14.255,15.609,28.431,6.542c0.271-0.169,0.402-0.476,0.334-0.793
			c-0.063-0.323-0.303-0.555-0.626-0.614C49.184,66.571,44.727,51.01,33.026,51.01z"/>
		<linearGradient id="SVGID_3_" gradientUnits="userSpaceOnUse" x1="21.6162" y1="15.0713" x2="57.9264" y2="15.0709">
			<stop  offset="0" style="stop-color:#84AD40"/>
			<stop  offset="0.75" style="stop-color:#B0D23B"/>
			<stop  offset="1" style="stop-color:#6B5832"/>
		</linearGradient>
		<path fill-rule="evenodd" clip-rule="evenodd" fill="url(#SVGID_3_)" d="M29.986,5.381h9.049h9.048
			c0.196,0,0.392,0.01,0.587,0.014c3.953,0.303,7.115,3.646,7.115,7.672v4.451h-16.75H22.276l-5.085,2.778
			c-3.579,1.961-5.03,2.953-7.05,4.465C10.396,14.057,19.223,5.381,29.986,5.381z"/>
		<linearGradient id="SVGID_4_" gradientUnits="userSpaceOnUse" x1="55.936" y1="51.8262" x2="68.4255" y2="51.8262">
			<stop  offset="0" style="stop-color:#ED1C24"/>
			<stop  offset="1" style="stop-color:#B7282F"/>
		</linearGradient>
		<path fill-rule="evenodd" clip-rule="evenodd" fill="url(#SVGID_4_)" d="M47.095,51.01H60.23c4.084,0,7.449-3.219,7.688-7.243
			c-0.142,6.319-3.287,11.931-8.04,15.472c-4.009,2.982-14.563-5.147-13.497-7.757C46.513,51.195,46.785,51.01,47.095,51.01z"/>
		<linearGradient id="SVGID_5_" gradientUnits="userSpaceOnUse" x1="19.8359" y1="56.8271" x2="19.8363" y2="14.469">
			<stop  offset="0" style="stop-color:#0084CA"/>
			<stop  offset="0.31" style="stop-color:#00A4DF"/>
			<stop  offset="0.71" style="stop-color:#2DC3E8"/>
			<stop  offset="1" style="stop-color:#168275"/>
		</linearGradient>
		<path fill-rule="evenodd" clip-rule="evenodd" fill="url(#SVGID_5_)" d="M10.142,43.317v-9.05v-9.053
			c0-0.198,0.009-0.387,0.009-0.584c0.313-3.959,3.647-7.113,7.685-7.113h4.44v16.748v21.197c0,4.084,3.234,7.455,7.254,7.689
			C18.823,62.906,10.142,54.08,10.142,43.317z"/>
	</g>
	<g>
		<path fill="#FFFFFF" fill-rule="evenodd" clip-rule="evenodd" d="M213.122,35.729c0-6.439-0.009-12.879,0.01-19.314
			c0.005-0.914,0.077-1.846,0.275-2.736c0.618-2.817,2.34-4.364,5.351-4.836c0.959-0.152,1.944-0.246,2.916-0.248
			c9.939-0.014,19.885-0.024,29.83,0.012c3.164,0.012,6.319,0.224,9.403,1.029c4.104,1.07,6.661,3.594,7.318,7.877
			c0.56,3.697,0.563,7.4,0.025,11.101c-0.438,3.037-2.11,5.189-4.798,6.604c-0.422,0.224-0.839,0.468-1.214,0.761
			c-0.666,0.527-0.635,1.115,0.063,1.576c0.391,0.256,0.783,0.504,1.201,0.688c2.96,1.291,4.337,3.686,4.671,6.772
			c0.137,1.22,0.232,2.444,0.253,3.669c0.043,2.373,0.035,4.749,0.016,7.125c-0.011,1.566-0.82,2.542-2.307,2.742
			c-0.691,0.091-1.425,0.091-2.122,0.003c-1.495-0.203-2.287-1.187-2.317-2.794c-0.032-1.84,0.003-3.68-0.08-5.518
			c-0.064-1.413-0.203-2.829-0.417-4.225c-0.463-3.062-2.333-4.84-5.281-5.577c-2.392-0.601-4.848-0.767-7.299-0.776
			c-8.757-0.044-17.512-0.035-26.269-0.027c-1.704,0-2.454,0.779-2.454,2.465c0,4.465,0,8.928,0,13.396
			c0,2.095-0.998,3.104-3.094,3.104c-0.476,0.004-0.967,0.02-1.431-0.063c-1.383-0.237-2.179-1.179-2.25-2.575
			c-0.006-0.229-0.001-0.462-0.001-0.691C213.122,48.755,213.122,42.24,213.122,35.729z M237.383,14.112c0-0.031,0-0.069,0-0.104
			c-4.812,0-9.623-0.005-14.43,0.005c-0.4,0-0.809,0.021-1.205,0.078c-1.11,0.166-1.609,0.658-1.8,1.766
			c-0.051,0.281-0.051,0.571-0.051,0.858c0,5,0,10.003,0,15.003c0,1.764,0.734,2.518,2.519,2.518
			c9.259,0.004,18.51,0.035,27.767-0.038c1.955-0.015,3.938-0.288,5.857-0.688c3.172-0.66,5.113-2.611,5.513-5.931
			c0.312-2.539,0.336-5.087-0.02-7.618c-0.443-3.154-1.771-4.626-4.889-5.264c-1.588-0.322-3.223-0.534-4.839-0.559
			C247.002,14.066,242.189,14.112,237.383,14.112z"/>
		<path fill="#FFFFFF" fill-rule="evenodd" clip-rule="evenodd" d="M307.411,58.604c-6.132,0-12.259,0.021-18.394-0.016
			c-1.256-0.005-2.526-0.111-3.764-0.335c-3.123-0.577-4.809-2.478-5.111-5.636c-0.064-0.723-0.099-1.45-0.099-2.18
			c-0.01-11.305-0.016-22.605,0.003-33.91c0.005-0.953,0.072-1.922,0.271-2.85c0.62-2.84,2.365-4.392,5.412-4.843
			c1.074-0.159,2.169-0.243,3.258-0.247c12.493-0.014,24.985-0.008,37.474-0.002c0.402,0,0.801,0.061,1.202,0.109
			c0.127,0.018,0.25,0.07,0.377,0.123c1.076,0.464,1.533,1.648,1.278,3.326c-0.175,1.146-0.915,1.864-2.061,1.968
			c-0.383,0.038-0.763,0.041-1.153,0.041c-12.009,0.001-24.022,0-36.032,0.001c-0.366,0-0.726,0.015-1.091,0.045
			c-1.504,0.137-2.142,0.826-2.169,2.345c-0.017,0.994-0.003,1.988-0.003,2.988c0,2.72-0.006,5.442,0,8.161
			c0.003,1.606,0.725,2.357,2.329,2.418c0.269,0.01,0.534,0.006,0.807,0.006c11.455,0,22.915,0,34.37,0.004
			c0.378,0,0.765,0.015,1.143,0.064c1.26,0.173,1.981,0.969,2.038,2.231c0.012,0.232,0.012,0.464,0,0.694
			c-0.03,1.413-0.861,2.281-2.274,2.375c-0.287,0.021-0.573,0.011-0.862,0.011c-11.533,0-23.067,0-34.601,0.006
			c-0.398,0-0.803,0.015-1.195,0.087c-1.157,0.215-1.742,0.889-1.751,2.071c-0.009,4.331-0.017,8.657,0.009,12.989
			c0.004,1.402,0.631,2.066,2.018,2.238c0.386,0.049,0.77,0.059,1.148,0.059c12.222,0.002,24.447,0,36.669,0.008
			c0.458,0,0.924,0.021,1.365,0.114c0.87,0.185,1.457,0.746,1.588,1.618c0.102,0.709,0.115,1.46,0,2.163
			c-0.172,1.054-0.972,1.639-2.14,1.737c-0.267,0.025-0.534,0.016-0.803,0.016C320.244,58.604,313.834,58.604,307.411,58.604z"/>
		<path fill="#FFFFFF" fill-rule="evenodd" clip-rule="evenodd" d="M115.917,14.112c-5.555,0-11.117-0.031-16.667,0.015
			c-2.684,0.021-5.35,0.264-7.971,0.902c-4.068,0.988-6.476,3.534-7.02,7.664c-0.341,2.596-0.528,5.223-0.556,7.84
			c-0.047,3.58,0.073,7.162,0.205,10.739c0.044,1.315,0.25,2.636,0.505,3.929c0.714,3.56,2.925,5.742,6.384,6.725
			c2.077,0.598,4.209,0.837,6.352,0.914c3.696,0.135,7.393,0.223,11.088,0.237c8.87,0.031,17.744,0.008,26.612,0.016
			c0.346,0,0.695,0.016,1.028,0.094c0.939,0.22,1.619,0.927,1.691,1.801c0.087,1.101,0.043,2.186-1.114,2.788
			c-1.248,0.656-2.624,0.85-3.994,0.931c-2.205,0.128-4.41,0.237-6.61,0.248c-8.124,0.022-16.245,0.03-24.368-0.017
			c-4.104-0.023-8.201-0.242-12.235-1.029c-2.471-0.479-4.8-1.324-6.811-2.889c-2.658-2.08-3.973-4.937-4.644-8.153
			c-0.727-3.484-0.963-7.02-0.938-10.567c0.029-3.713,0.071-7.434,0.285-11.141c0.115-2.013,0.474-4.034,0.961-5.998
			c1.145-4.705,4.164-7.713,8.751-9.196c2.438-0.79,4.956-1.21,7.493-1.345c4.037-0.212,8.081-0.363,12.115-0.393
			c7.321-0.05,14.644-0.031,21.961,0.047c2.176,0.025,4.346,0.354,6.515,0.552c0.224,0.022,0.445,0.104,0.664,0.173
			c1.6,0.506,2.197,1.465,1.973,3.141c-0.129,0.977-0.994,1.76-2.056,1.854c-0.268,0.021-0.537,0.017-0.804,0.017
			c-6.264,0-12.528,0-18.795,0C115.917,14.042,115.917,14.078,115.917,14.112z"/>
		<path fill="#FFFFFF" fill-rule="evenodd" clip-rule="evenodd" d="M201.812,58.594c-1.696,0.186-2.838-0.702-3.639-2.176
			c-1.258-2.318-2.548-4.626-3.76-6.968c-0.646-1.253-1.583-1.81-2.98-1.81c-11.653,0.019-23.302,0.02-34.954,0
			c-1.396-0.004-2.337,0.546-3,1.789c-1.237,2.311-2.565,4.571-3.837,6.861c-1.213,2.176-2.542,2.646-5.243,2.17
			c-1.188-0.208-1.823-1.287-1.546-2.475c0.136-0.59,0.376-1.17,0.676-1.693c8.351-14.492,16.729-28.977,25.074-43.471
			c0.902-1.559,2.118-2.337,3.933-2.255c1.322,0.06,2.644,0.019,3.972,0.019c1.531,0,2.632,0.664,3.391,2.025
			c8.133,14.555,16.287,29.096,24.419,43.646c0.188,0.333,0.362,0.679,0.5,1.034c0.66,1.746-0.208,3.128-2.073,3.297
			C202.458,58.613,202.173,58.594,201.812,58.594z M174.002,42.563c4.711,0,9.42,0.006,14.139-0.004
			c1.504,0,1.958-0.754,1.295-2.109c-0.041-0.088-0.084-0.172-0.133-0.255c-4.617-8.423-9.238-16.845-13.866-25.264
			c-0.144-0.265-0.317-0.526-0.526-0.745c-0.412-0.424-0.847-0.435-1.254-0.007c-0.254,0.276-0.47,0.603-0.659,0.935
			c-4.13,7.25-8.25,14.506-12.371,21.76c-0.692,1.211-1.413,2.412-2.058,3.654c-0.646,1.246-0.165,1.996,1.233,2.033
			c0.187,0.008,0.382,0.002,0.574,0.002C164.916,42.563,169.462,42.563,174.002,42.563z"/>
	</g>
</g>
<g>
	<g>
		<path fill="#FFFFFF" d="M142.883,69.704h2.47l5.667,15.523h-2.668l-1.279-3.639h-5.998l-1.279,3.639h-2.58L142.883,69.704z
			 M146.279,79.318l-2.205-6.196l-2.205,6.196H146.279z"/>
		<path fill="#FFFFFF" d="M157.812,69.792h2.712l3.021,11.202l3.153-11.246h2.205l3.153,11.246l3.021-11.202h2.646l-4.498,15.523
			h-2.315l-3.153-10.893l-3.153,10.893h-2.315L157.812,69.792z"/>
		<path fill="#FFFFFF" d="M179.619,69.308h2.492v5.953c0.323-0.515,0.739-0.967,1.246-1.356c0.507-0.389,1.157-0.584,1.951-0.584
			c1.132,0,2.014,0.367,2.646,1.103s0.948,1.728,0.948,2.977v7.828h-2.492v-7.122c0-0.823-0.184-1.452-0.551-1.886
			c-0.368-0.434-0.882-0.65-1.543-0.65s-1.194,0.229-1.599,0.684c-0.404,0.456-0.606,1.088-0.606,1.896v7.078h-2.492V69.308z"/>
		<path fill="#FFFFFF" d="M196.443,85.47c-0.779,0-1.496-0.146-2.15-0.44c-0.654-0.294-1.217-0.706-1.687-1.235
			c-0.471-0.529-0.841-1.157-1.113-1.885c-0.272-0.728-0.408-1.525-0.408-2.393v-0.198c0-0.853,0.136-1.646,0.408-2.382
			c0.272-0.734,0.646-1.37,1.125-1.907c0.478-0.536,1.047-0.955,1.709-1.257c0.662-0.301,1.381-0.452,2.161-0.452
			c0.764,0,1.478,0.151,2.139,0.452c0.662,0.302,1.227,0.717,1.698,1.246c0.47,0.529,0.841,1.157,1.114,1.885
			c0.271,0.728,0.408,1.525,0.408,2.393v0.198c0,0.868-0.136,1.665-0.408,2.393c-0.272,0.728-0.647,1.356-1.125,1.886
			s-1.047,0.944-1.708,1.245C197.943,85.319,197.222,85.47,196.443,85.47z M196.487,83.287c0.441,0,0.838-0.096,1.191-0.287
			c0.353-0.19,0.654-0.459,0.904-0.805c0.25-0.345,0.441-0.749,0.574-1.213c0.132-0.463,0.198-0.966,0.198-1.51V79.34
			c0-0.543-0.074-1.047-0.221-1.51c-0.147-0.464-0.349-0.867-0.606-1.213c-0.258-0.346-0.563-0.614-0.916-0.805
			c-0.353-0.191-0.742-0.287-1.168-0.287c-0.441,0-0.838,0.096-1.191,0.287c-0.353,0.19-0.654,0.455-0.904,0.793
			c-0.25,0.339-0.441,0.739-0.573,1.202s-0.199,0.967-0.199,1.511v0.132c0,0.544,0.074,1.052,0.221,1.521
			c0.147,0.471,0.349,0.875,0.606,1.213c0.257,0.338,0.562,0.606,0.915,0.805C195.671,83.188,196.061,83.287,196.487,83.287z"/>
		<path fill="#FFFFFF" d="M204.271,69.308h2.492v15.92h-2.492V69.308z"/>
		<path fill="#FFFFFF" d="M214.546,85.47c-0.75,0-1.448-0.14-2.096-0.419c-0.648-0.278-1.216-0.676-1.706-1.19
			s-0.871-1.139-1.146-1.874s-0.412-1.559-0.412-2.47V79.34c0-0.882,0.125-1.69,0.375-2.425c0.25-0.735,0.595-1.367,1.037-1.896
			c0.441-0.529,0.966-0.944,1.576-1.246c0.61-0.301,1.275-0.452,1.996-0.452c0.794,0,1.493,0.154,2.094,0.463
			c0.604,0.309,1.111,0.739,1.521,1.29c0.412,0.552,0.721,1.202,0.928,1.951c0.205,0.75,0.309,1.566,0.309,2.448
			c0,0.073,0,0.191,0,0.353c0,0.162-0.008,0.331-0.023,0.507h-7.298c0.118,0.979,0.448,1.723,0.993,2.233
			c0.543,0.511,1.198,0.766,1.962,0.766c0.559,0,1.05-0.11,1.478-0.331c0.426-0.22,0.83-0.521,1.213-0.903l1.301,1.546
			c-0.529,0.565-1.125,1.011-1.787,1.338C216.199,85.307,215.428,85.47,214.546,85.47z M216.598,78.612
			c-0.074-0.926-0.313-1.69-0.715-2.293s-0.969-0.904-1.701-0.904c-0.688,0-1.255,0.283-1.701,0.849
			c-0.447,0.566-0.713,1.35-0.801,2.349H216.598z"/>
		<path fill="#FFFFFF" d="M233.355,85.669l-1.632-1.521c-0.559,0.426-1.165,0.753-1.819,0.98c-0.654,0.229-1.356,0.342-2.105,0.342
			c-1.015,0-1.94-0.194-2.778-0.584s-1.559-0.93-2.161-1.621c-0.604-0.69-1.069-1.514-1.4-2.469
			c-0.331-0.956-0.496-2.007-0.496-3.153v-0.221c0-1.146,0.169-2.201,0.507-3.164s0.809-1.794,1.411-2.492s1.323-1.242,2.161-1.632
			c0.838-0.389,1.765-0.584,2.778-0.584c1,0,1.919,0.195,2.757,0.584c0.838,0.39,1.558,0.931,2.16,1.621
			c0.604,0.691,1.07,1.514,1.4,2.47c0.331,0.955,0.496,2.007,0.496,3.153v0.22c0,0.956-0.121,1.846-0.363,2.669
			c-0.243,0.823-0.585,1.565-1.025,2.227l1.676,1.455L233.355,85.669z M227.864,83.155c0.809,0,1.507-0.208,2.095-0.624
			l-2.293-2.066l1.565-1.72l2.14,2.051c0.411-0.896,0.617-1.955,0.617-3.176v-0.198c0-0.823-0.104-1.573-0.309-2.249
			c-0.206-0.676-0.496-1.257-0.871-1.742s-0.82-0.86-1.334-1.125c-0.515-0.265-1.081-0.396-1.698-0.396
			c-0.603,0-1.161,0.129-1.676,0.387s-0.956,0.626-1.323,1.104c-0.367,0.479-0.654,1.058-0.859,1.734
			c-0.206,0.678-0.309,1.437-0.309,2.275v0.199c0,0.854,0.106,1.624,0.319,2.309c0.213,0.686,0.507,1.267,0.882,1.746
			c0.375,0.479,0.823,0.847,1.345,1.104C226.678,83.026,227.247,83.155,227.864,83.155z"/>
		<path fill="#FFFFFF" d="M247.291,85.47c-0.765,0-1.467-0.146-2.104-0.44c-0.64-0.294-1.188-0.702-1.646-1.224
			c-0.459-0.522-0.819-1.147-1.082-1.875s-0.394-1.524-0.394-2.393v-0.22c0-0.867,0.135-1.669,0.404-2.403
			c0.27-0.735,0.638-1.367,1.104-1.896c0.467-0.529,1.026-0.944,1.68-1.246c0.653-0.301,1.362-0.452,2.127-0.452
			c0.838,0,1.551,0.144,2.139,0.43c0.588,0.287,1.125,0.673,1.609,1.158l-1.389,1.83c-0.309-0.323-0.647-0.599-1.015-0.827
			c-0.367-0.228-0.815-0.342-1.345-0.342c-0.412,0-0.79,0.092-1.136,0.275c-0.346,0.185-0.644,0.445-0.893,0.783
			c-0.251,0.338-0.445,0.738-0.585,1.202c-0.14,0.463-0.209,0.967-0.209,1.51v0.11c0,0.573,0.069,1.092,0.209,1.555
			s0.338,0.86,0.596,1.19c0.257,0.331,0.563,0.589,0.915,0.772s0.742,0.275,1.169,0.275c0.514,0,0.955-0.114,1.322-0.342
			s0.721-0.511,1.059-0.849l1.346,1.653c-0.471,0.515-1.012,0.938-1.621,1.268C248.94,85.305,248.188,85.47,247.291,85.47z"/>
		<path fill="#FFFFFF" d="M257.742,85.47c-0.779,0-1.496-0.146-2.149-0.44c-0.654-0.294-1.217-0.706-1.688-1.235
			s-0.842-1.157-1.113-1.885c-0.272-0.728-0.408-1.525-0.408-2.393v-0.198c0-0.853,0.136-1.646,0.408-2.382
			c0.271-0.734,0.646-1.37,1.124-1.907c0.478-0.536,1.048-0.955,1.709-1.257c0.662-0.301,1.382-0.452,2.161-0.452
			c0.765,0,1.478,0.151,2.139,0.452c0.662,0.302,1.228,0.717,1.698,1.246s0.842,1.157,1.113,1.885
			c0.272,0.728,0.408,1.525,0.408,2.393v0.198c0,0.868-0.136,1.665-0.408,2.393c-0.271,0.728-0.646,1.356-1.124,1.886
			c-0.479,0.529-1.048,0.944-1.709,1.245C259.241,85.319,258.521,85.47,257.742,85.47z M257.786,83.287
			c0.441,0,0.838-0.096,1.19-0.287c0.354-0.19,0.654-0.459,0.904-0.805c0.25-0.345,0.441-0.749,0.573-1.213
			c0.133-0.463,0.199-0.966,0.199-1.51V79.34c0-0.543-0.074-1.047-0.221-1.51c-0.147-0.464-0.35-0.867-0.606-1.213
			c-0.258-0.346-0.563-0.614-0.915-0.805c-0.354-0.191-0.743-0.287-1.169-0.287c-0.441,0-0.838,0.096-1.19,0.287
			c-0.354,0.19-0.654,0.455-0.904,0.793c-0.25,0.339-0.441,0.739-0.573,1.202c-0.133,0.463-0.198,0.967-0.198,1.511v0.132
			c0,0.544,0.073,1.052,0.22,1.521c0.147,0.471,0.35,0.875,0.606,1.213c0.258,0.338,0.563,0.606,0.915,0.805
			C256.971,83.188,257.359,83.287,257.786,83.287z"/>
		<path fill="#FFFFFF" d="M265.438,73.541h2.492v1.697c0.176-0.264,0.363-0.51,0.562-0.738c0.199-0.228,0.427-0.43,0.684-0.606
			c0.258-0.177,0.541-0.315,0.85-0.419c0.309-0.103,0.653-0.154,1.036-0.154c0.72,0,1.334,0.169,1.841,0.507
			c0.508,0.339,0.9,0.794,1.18,1.367c0.397-0.529,0.867-0.974,1.411-1.334c0.544-0.359,1.213-0.54,2.007-0.54
			c1.088,0,1.955,0.346,2.602,1.036c0.647,0.691,0.971,1.706,0.971,3.043v7.828h-2.492v-7.101c0-0.838-0.169-1.474-0.507-1.907
			s-0.83-0.65-1.478-0.65c-0.617,0-1.121,0.221-1.51,0.662c-0.39,0.44-0.585,1.08-0.585,1.918v7.078h-2.491v-7.122
			c0-0.838-0.173-1.47-0.519-1.896c-0.346-0.426-0.827-0.64-1.444-0.64c-0.632,0-1.143,0.231-1.532,0.694
			c-0.39,0.464-0.584,1.1-0.584,1.908v7.056h-2.492V73.541z"/>
		<path fill="#FFFFFF" d="M283.828,73.541h2.492v1.874c0.176-0.279,0.377-0.547,0.604-0.805c0.227-0.257,0.476-0.481,0.747-0.673
			c0.271-0.19,0.576-0.342,0.913-0.452c0.337-0.109,0.719-0.165,1.144-0.165c0.586,0,1.15,0.121,1.692,0.364
			c0.543,0.242,1.022,0.609,1.44,1.103c0.418,0.492,0.755,1.109,1.012,1.852c0.257,0.743,0.385,1.606,0.385,2.591v0.309
			c0,0.985-0.125,1.846-0.374,2.58c-0.249,0.735-0.583,1.35-1,1.842c-0.418,0.492-0.901,0.863-1.451,1.113
			c-0.551,0.25-1.118,0.375-1.704,0.375c-0.425,0-0.811-0.056-1.154-0.166c-0.345-0.109-0.653-0.257-0.924-0.44
			c-0.271-0.184-0.517-0.394-0.737-0.629c-0.22-0.234-0.417-0.484-0.593-0.749v5.094h-2.492V73.541z M289.054,83.243
			c0.765,0,1.408-0.331,1.93-0.992c0.521-0.662,0.783-1.58,0.783-2.757v-0.198c0-0.588-0.07-1.113-0.21-1.576
			c-0.14-0.464-0.334-0.856-0.584-1.18s-0.54-0.573-0.871-0.75s-0.68-0.265-1.048-0.265c-0.382,0-0.738,0.088-1.069,0.265
			c-0.33,0.177-0.625,0.427-0.882,0.75s-0.459,0.716-0.606,1.18c-0.146,0.463-0.221,0.98-0.221,1.555v0.22
			c0,0.573,0.074,1.092,0.221,1.555c0.147,0.463,0.35,0.856,0.606,1.18s0.552,0.573,0.882,0.75
			C288.315,83.155,288.672,83.243,289.054,83.243z"/>
		<path fill="#FFFFFF" d="M299.528,85.448c-0.485,0-0.945-0.081-1.379-0.243c-0.434-0.161-0.813-0.393-1.135-0.694
			c-0.324-0.301-0.581-0.673-0.772-1.113c-0.191-0.441-0.286-0.948-0.286-1.521v-0.11c0-1.249,0.382-2.187,1.146-2.812
			c0.764-0.625,1.764-0.938,2.999-0.938c0.559,0,1.047,0.045,1.466,0.133s0.827,0.198,1.224,0.331v-0.485
			c0-0.794-0.22-1.39-0.661-1.786s-1.059-0.596-1.853-0.596c-0.559,0-1.073,0.074-1.543,0.221c-0.471,0.147-0.897,0.309-1.279,0.485
			l-0.705-1.984c0.558-0.279,1.143-0.504,1.753-0.673c0.609-0.169,1.312-0.254,2.105-0.254c1.528,0,2.676,0.397,3.439,1.191
			c0.779,0.779,1.169,1.903,1.169,3.373v7.255h-2.447v-1.434c-0.339,0.5-0.772,0.901-1.301,1.202
			C300.939,85.297,300.292,85.448,299.528,85.448z M300.277,83.574c0.354,0,0.684-0.056,0.992-0.166s0.577-0.265,0.806-0.463
			c0.228-0.198,0.407-0.438,0.54-0.717c0.132-0.279,0.198-0.588,0.198-0.926v-1.169c-0.294-0.117-0.621-0.217-0.981-0.298
			c-0.36-0.08-0.753-0.121-1.18-0.121c-0.721,0-1.278,0.173-1.676,0.519c-0.396,0.346-0.596,0.826-0.596,1.444v0.044
			c0,0.588,0.181,1.04,0.541,1.355C299.281,83.394,299.733,83.56,300.277,83.574z"/>
		<path fill="#FFFFFF" d="M307.906,73.541h2.492v1.72c0.323-0.515,0.738-0.967,1.245-1.356c0.508-0.389,1.158-0.584,1.952-0.584
			c1.132,0,2.014,0.367,2.646,1.103s0.948,1.728,0.948,2.977v7.828h-2.491v-7.122c0-0.823-0.185-1.452-0.552-1.886
			s-0.882-0.65-1.543-0.65c-0.662,0-1.195,0.229-1.599,0.684c-0.405,0.456-0.606,1.088-0.606,1.896v7.078h-2.492V73.541z"/>
		<path fill="#FFFFFF" d="M326.583,73.541h2.58l-3.969,11.863c-0.397,1.176-0.86,2.006-1.39,2.491s-1.22,0.728-2.072,0.728
			c-0.823,0-1.61-0.206-2.359-0.617l0.728-1.918c0.205,0.117,0.422,0.213,0.65,0.286c0.228,0.073,0.459,0.11,0.694,0.11
			c0.338,0,0.614-0.088,0.827-0.265s0.408-0.5,0.584-0.97l-4.167-11.709h2.646l2.713,8.489L326.583,73.541z"/>
	</g>
</g>
</svg>
