<?xml version="1.0" encoding="utf-8"?>
<!-- Generator: Adobe Illustrator 16.0.0, SVG Export Plug-In . SVG Version: 6.00 Build 0)  -->
<!DOCTYPE svg PUBLIC "-//W3C//DTD SVG 1.1//EN" "http://www.w3.org/Graphics/SVG/1.1/DTD/svg11.dtd">
<svg version="1.1" id="Layer_1" xmlns="http://www.w3.org/2000/svg" xmlns:xlink="http://www.w3.org/1999/xlink" x="0px" y="0px"
	 width="75px" height="85px" viewBox="0 0 75 85" enable-background="new 0 0 75 85" xml:space="preserve">
<g>
	<linearGradient id="SVGID_1_" gradientUnits="userSpaceOnUse" x1="57.2285" y1="16.084" x2="57.2285" y2="56.3586">
		<stop  offset="0" style="stop-color:#d4e4ec"/>
		<stop  offset="0.2" style="stop-color:#d4e4ec"/>
		<stop  offset="0.73" style="stop-color:#d4e4ec"/>
		<stop  offset="1" style="stop-color:#d4e4ec"/>
	</linearGradient>
	<path fill-rule="evenodd" clip-rule="evenodd" fill="url(#SVGID_1_)" d="M66.918,30.215v9.053v9.05
		c-0.007,5.061-1.914,9.689-5.062,13.21c-1.828,2.029-3.059,0.945-5.581,2.094l-2.404,0.617c0.78-1.2,0.914-2.236,0.914-3.775
		V39.266V22.515l-2.296-4.657c-1.804-3.663-2.188-5.129-4.95-7.477C58.244,10.622,66.918,19.453,66.918,30.215z"/>
	<linearGradient id="SVGID_2_" gradientUnits="userSpaceOnUse" x1="19.0645" y1="66.7676" x2="38.8893" y2="66.7676">
		<stop  offset="0" style="stop-color:#d4e4ec"/>
		<stop  offset="0.47" style="stop-color:#d4e4ec"/>
		<stop  offset="1" style="stop-color:#d4e4ec"/>
	</linearGradient>
	<path fill-rule="evenodd" clip-rule="evenodd" fill="url(#SVGID_2_)" d="M32.026,56.01H16.903l2.085,7.515l6.848,4.286l1.798,0.292
		c0.433,0.028,0.889,0.05,1.353,0.05h1.188c13.271,0,14.255,15.609,28.431,6.542c0.271-0.169,0.402-0.476,0.335-0.793
		c-0.063-0.323-0.303-0.555-0.626-0.614C48.184,71.571,43.727,56.01,32.026,56.01z"/>
	<linearGradient id="SVGID_3_" gradientUnits="userSpaceOnUse" x1="20.6162" y1="20.0713" x2="56.9257" y2="20.0709">
		<stop  offset="0" style="stop-color:#d4e4ec"/>
		<stop  offset="0.75" style="stop-color:#d4e4ec"/>
		<stop  offset="1" style="stop-color:#d4e4ec"/>
	</linearGradient>
	<path fill-rule="evenodd" clip-rule="evenodd" fill="url(#SVGID_3_)" d="M28.986,10.381h9.049h9.049
		c0.195,0,0.391,0.01,0.587,0.014c3.953,0.303,7.114,3.646,7.114,7.672v4.451h-16.75H21.276l-5.085,2.778
		c-3.579,1.961-5.03,2.953-7.05,4.465C9.396,19.057,18.223,10.381,28.986,10.381z"/>
	<linearGradient id="SVGID_4_" gradientUnits="userSpaceOnUse" x1="54.936" y1="56.8262" x2="67.4258" y2="56.8262">
		<stop  offset="0" style="stop-color:#d4e4ec"/>
		<stop  offset="1" style="stop-color:#d4e4ec"/>
	</linearGradient>
	<path fill-rule="evenodd" clip-rule="evenodd" fill="url(#SVGID_4_)" d="M46.095,56.01H59.23c4.084,0,7.448-3.219,7.688-7.243
		c-0.143,6.319-3.287,11.931-8.041,15.472c-4.009,2.982-14.563-5.147-13.496-7.757C45.513,56.195,45.785,56.01,46.095,56.01z"/>
	<linearGradient id="SVGID_5_" gradientUnits="userSpaceOnUse" x1="18.8359" y1="61.8271" x2="18.8363" y2="19.469">
		<stop  offset="0" style="stop-color:#d4e4ec"/>
		<stop  offset="0.31" style="stop-color:#d4e4ec"/>
		<stop  offset="0.71" style="stop-color:#d4e4ec"/>
		<stop  offset="1" style="stop-color:#d4e4ec"/>
	</linearGradient>
	<path fill-rule="evenodd" clip-rule="evenodd" fill="url(#SVGID_5_)" d="M9.142,48.317v-9.05v-9.053
		c0-0.198,0.009-0.387,0.009-0.584c0.313-3.959,3.647-7.113,7.685-7.113h4.44v16.748v21.197c0,4.084,3.234,7.455,7.254,7.689
		C17.823,67.906,9.142,59.08,9.142,48.317z"/>
</g>
</svg>
